<mxfile host="app.diagrams.net" modified="2023-12-10T21:15:45.970Z" agent="Mozilla/5.0 (Windows NT 10.0; Win64; x64; rv:120.0) Gecko/20100101 Firefox/120.0" etag="mMXvClEXD5GewmlN39va" version="22.1.7" type="device">
  <diagram name="Page-1" id="52a04d89-c75d-2922-d76d-85b35f80e030">
    <mxGraphModel dx="683" dy="668" grid="1" gridSize="10" guides="1" tooltips="1" connect="1" arrows="1" fold="1" page="1" pageScale="1" pageWidth="1100" pageHeight="850" background="none" math="0" shadow="0">
      <root>
        <mxCell id="0" />
        <mxCell id="1" parent="0" />
        <mxCell id="TzFSNJ2dvFdZEOJwIAdj-11" style="edgeStyle=orthogonalEdgeStyle;rounded=0;orthogonalLoop=1;jettySize=auto;html=1;entryX=0;entryY=0.5;entryDx=0;entryDy=0;" edge="1" parent="1" source="TzFSNJ2dvFdZEOJwIAdj-5" target="TzFSNJ2dvFdZEOJwIAdj-10">
          <mxGeometry relative="1" as="geometry" />
        </mxCell>
        <mxCell id="TzFSNJ2dvFdZEOJwIAdj-5" value="Построить дом" style="ellipse;whiteSpace=wrap;html=1;aspect=fixed;" vertex="1" parent="1">
          <mxGeometry x="240" y="110" width="80" height="80" as="geometry" />
        </mxCell>
        <mxCell id="TzFSNJ2dvFdZEOJwIAdj-7" style="edgeStyle=orthogonalEdgeStyle;rounded=0;orthogonalLoop=1;jettySize=auto;html=1;entryX=0.5;entryY=0;entryDx=0;entryDy=0;" edge="1" parent="1" source="TzFSNJ2dvFdZEOJwIAdj-6" target="TzFSNJ2dvFdZEOJwIAdj-5">
          <mxGeometry relative="1" as="geometry" />
        </mxCell>
        <mxCell id="TzFSNJ2dvFdZEOJwIAdj-6" value="Архитектор" style="rounded=0;whiteSpace=wrap;html=1;" vertex="1" parent="1">
          <mxGeometry x="330" y="10" width="120" height="60" as="geometry" />
        </mxCell>
        <mxCell id="TzFSNJ2dvFdZEOJwIAdj-9" style="edgeStyle=orthogonalEdgeStyle;rounded=0;orthogonalLoop=1;jettySize=auto;html=1;entryX=0;entryY=0.5;entryDx=0;entryDy=0;" edge="1" parent="1" source="TzFSNJ2dvFdZEOJwIAdj-8" target="TzFSNJ2dvFdZEOJwIAdj-5">
          <mxGeometry relative="1" as="geometry" />
        </mxCell>
        <mxCell id="TzFSNJ2dvFdZEOJwIAdj-8" value="Магазин" style="rounded=0;whiteSpace=wrap;html=1;" vertex="1" parent="1">
          <mxGeometry x="20" y="120" width="120" height="60" as="geometry" />
        </mxCell>
        <mxCell id="TzFSNJ2dvFdZEOJwIAdj-10" value="Заказчик" style="rounded=0;whiteSpace=wrap;html=1;" vertex="1" parent="1">
          <mxGeometry x="360" y="190" width="120" height="60" as="geometry" />
        </mxCell>
        <mxCell id="TzFSNJ2dvFdZEOJwIAdj-18" style="edgeStyle=orthogonalEdgeStyle;rounded=0;orthogonalLoop=1;jettySize=auto;html=1;entryX=0;entryY=0.5;entryDx=0;entryDy=0;" edge="1" parent="1" source="TzFSNJ2dvFdZEOJwIAdj-12" target="TzFSNJ2dvFdZEOJwIAdj-13">
          <mxGeometry relative="1" as="geometry" />
        </mxCell>
        <mxCell id="TzFSNJ2dvFdZEOJwIAdj-12" value="Согласование проекта" style="ellipse;whiteSpace=wrap;html=1;aspect=fixed;" vertex="1" parent="1">
          <mxGeometry x="200" y="320" width="80" height="80" as="geometry" />
        </mxCell>
        <mxCell id="TzFSNJ2dvFdZEOJwIAdj-19" style="edgeStyle=orthogonalEdgeStyle;rounded=0;orthogonalLoop=1;jettySize=auto;html=1;entryX=0;entryY=0.5;entryDx=0;entryDy=0;" edge="1" parent="1" source="TzFSNJ2dvFdZEOJwIAdj-13" target="TzFSNJ2dvFdZEOJwIAdj-14">
          <mxGeometry relative="1" as="geometry" />
        </mxCell>
        <mxCell id="TzFSNJ2dvFdZEOJwIAdj-13" value="Выполнение строительных работ" style="ellipse;whiteSpace=wrap;html=1;aspect=fixed;" vertex="1" parent="1">
          <mxGeometry x="350" y="410" width="80" height="80" as="geometry" />
        </mxCell>
        <mxCell id="TzFSNJ2dvFdZEOJwIAdj-14" value="&lt;div&gt;Сдача работ&lt;/div&gt;" style="ellipse;whiteSpace=wrap;html=1;aspect=fixed;" vertex="1" parent="1">
          <mxGeometry x="480" y="470" width="80" height="80" as="geometry" />
        </mxCell>
        <mxCell id="TzFSNJ2dvFdZEOJwIAdj-15" value="Заказчик" style="rounded=0;whiteSpace=wrap;html=1;" vertex="1" parent="1">
          <mxGeometry x="380" y="280" width="80" height="40" as="geometry" />
        </mxCell>
        <mxCell id="TzFSNJ2dvFdZEOJwIAdj-16" value="Документация" style="shape=partialRectangle;whiteSpace=wrap;html=1;left=0;right=0;fillColor=none;" vertex="1" parent="1">
          <mxGeometry x="560" y="370" width="120" height="40" as="geometry" />
        </mxCell>
        <mxCell id="TzFSNJ2dvFdZEOJwIAdj-17" style="edgeStyle=orthogonalEdgeStyle;rounded=0;orthogonalLoop=1;jettySize=auto;html=1;entryX=0.988;entryY=0.325;entryDx=0;entryDy=0;entryPerimeter=0;" edge="1" parent="1" source="TzFSNJ2dvFdZEOJwIAdj-15" target="TzFSNJ2dvFdZEOJwIAdj-12">
          <mxGeometry relative="1" as="geometry" />
        </mxCell>
        <mxCell id="TzFSNJ2dvFdZEOJwIAdj-20" value="" style="endArrow=classic;html=1;rounded=0;entryX=0.038;entryY=0.75;entryDx=0;entryDy=0;entryPerimeter=0;" edge="1" parent="1" target="TzFSNJ2dvFdZEOJwIAdj-13">
          <mxGeometry width="50" height="50" relative="1" as="geometry">
            <mxPoint x="110" y="470" as="sourcePoint" />
            <mxPoint x="200" y="470" as="targetPoint" />
            <Array as="points">
              <mxPoint x="280" y="470" />
            </Array>
          </mxGeometry>
        </mxCell>
        <mxCell id="TzFSNJ2dvFdZEOJwIAdj-23" value="" style="endArrow=classic;html=1;rounded=0;" edge="1" parent="1">
          <mxGeometry width="50" height="50" relative="1" as="geometry">
            <mxPoint x="450" y="450" as="sourcePoint" />
            <mxPoint x="560" y="400" as="targetPoint" />
            <Array as="points">
              <mxPoint x="450" y="400" />
            </Array>
          </mxGeometry>
        </mxCell>
        <mxCell id="TzFSNJ2dvFdZEOJwIAdj-25" value="Акт выполненных работ" style="text;html=1;strokeColor=none;fillColor=none;align=center;verticalAlign=middle;whiteSpace=wrap;rounded=0;" vertex="1" parent="1">
          <mxGeometry x="450" y="402.5" width="110" height="30" as="geometry" />
        </mxCell>
        <mxCell id="TzFSNJ2dvFdZEOJwIAdj-26" value="Утвержденный проект" style="text;html=1;strokeColor=none;fillColor=none;align=center;verticalAlign=middle;whiteSpace=wrap;rounded=0;" vertex="1" parent="1">
          <mxGeometry x="240" y="410" width="70" height="15" as="geometry" />
        </mxCell>
        <mxCell id="TzFSNJ2dvFdZEOJwIAdj-27" value="&lt;div&gt;Прайс-лист на материалы&lt;/div&gt;" style="text;html=1;strokeColor=none;fillColor=none;align=center;verticalAlign=middle;whiteSpace=wrap;rounded=0;" vertex="1" parent="1">
          <mxGeometry x="120" y="440" width="180" height="30" as="geometry" />
        </mxCell>
        <mxCell id="TzFSNJ2dvFdZEOJwIAdj-28" value="" style="endArrow=classic;html=1;rounded=0;" edge="1" parent="1">
          <mxGeometry width="50" height="50" relative="1" as="geometry">
            <mxPoint x="250" y="280" as="sourcePoint" />
            <mxPoint x="249.5" y="320" as="targetPoint" />
          </mxGeometry>
        </mxCell>
        <mxCell id="TzFSNJ2dvFdZEOJwIAdj-29" value="Проект дома" style="text;html=1;strokeColor=none;fillColor=none;align=center;verticalAlign=middle;whiteSpace=wrap;rounded=0;" vertex="1" parent="1">
          <mxGeometry x="170" y="280" width="60" height="30" as="geometry" />
        </mxCell>
        <mxCell id="TzFSNJ2dvFdZEOJwIAdj-30" value="" style="endArrow=classic;html=1;rounded=0;" edge="1" parent="1">
          <mxGeometry width="50" height="50" relative="1" as="geometry">
            <mxPoint x="560" y="510" as="sourcePoint" />
            <mxPoint x="640" y="510" as="targetPoint" />
          </mxGeometry>
        </mxCell>
        <mxCell id="TzFSNJ2dvFdZEOJwIAdj-31" value="&lt;div&gt;Акт приемки&lt;/div&gt;&lt;div&gt;&lt;br&gt;&lt;/div&gt;" style="edgeLabel;html=1;align=center;verticalAlign=middle;resizable=0;points=[];" vertex="1" connectable="0" parent="TzFSNJ2dvFdZEOJwIAdj-30">
          <mxGeometry x="0.425" y="4" relative="1" as="geometry">
            <mxPoint x="-17" y="-16" as="offset" />
          </mxGeometry>
        </mxCell>
        <mxCell id="TzFSNJ2dvFdZEOJwIAdj-32" value="" style="endArrow=classic;html=1;rounded=0;entryX=0.25;entryY=1;entryDx=0;entryDy=0;" edge="1" parent="1" target="TzFSNJ2dvFdZEOJwIAdj-15">
          <mxGeometry width="50" height="50" relative="1" as="geometry">
            <mxPoint x="400" y="410" as="sourcePoint" />
            <mxPoint x="450" y="345" as="targetPoint" />
          </mxGeometry>
        </mxCell>
        <mxCell id="TzFSNJ2dvFdZEOJwIAdj-34" value="Чеки на материалы" style="text;html=1;strokeColor=none;fillColor=none;align=center;verticalAlign=middle;whiteSpace=wrap;rounded=0;" vertex="1" parent="1">
          <mxGeometry x="405" y="330" width="80" height="30" as="geometry" />
        </mxCell>
        <mxCell id="TzFSNJ2dvFdZEOJwIAdj-35" value="" style="endArrow=classic;html=1;rounded=0;entryX=0;entryY=0.5;entryDx=0;entryDy=0;" edge="1" parent="1">
          <mxGeometry width="50" height="50" relative="1" as="geometry">
            <mxPoint x="400" y="380" as="sourcePoint" />
            <mxPoint x="560" y="380" as="targetPoint" />
          </mxGeometry>
        </mxCell>
        <mxCell id="TzFSNJ2dvFdZEOJwIAdj-36" value="Список исправлений" style="text;html=1;strokeColor=none;fillColor=none;align=center;verticalAlign=middle;whiteSpace=wrap;rounded=0;" vertex="1" parent="1">
          <mxGeometry x="310" y="270" width="60" height="30" as="geometry" />
        </mxCell>
        <mxCell id="TzFSNJ2dvFdZEOJwIAdj-40" style="edgeStyle=orthogonalEdgeStyle;rounded=0;orthogonalLoop=1;jettySize=auto;html=1;entryX=0;entryY=0.5;entryDx=0;entryDy=0;" edge="1" parent="1" source="TzFSNJ2dvFdZEOJwIAdj-37" target="TzFSNJ2dvFdZEOJwIAdj-38">
          <mxGeometry relative="1" as="geometry">
            <Array as="points">
              <mxPoint x="430" y="650" />
              <mxPoint x="430" y="710" />
            </Array>
          </mxGeometry>
        </mxCell>
        <mxCell id="TzFSNJ2dvFdZEOJwIAdj-37" value="Проверить схему" style="ellipse;whiteSpace=wrap;html=1;aspect=fixed;" vertex="1" parent="1">
          <mxGeometry x="340" y="610" width="80" height="80" as="geometry" />
        </mxCell>
        <mxCell id="TzFSNJ2dvFdZEOJwIAdj-38" value="Составить смету" style="ellipse;whiteSpace=wrap;html=1;aspect=fixed;" vertex="1" parent="1">
          <mxGeometry x="470" y="670" width="80" height="80" as="geometry" />
        </mxCell>
        <mxCell id="TzFSNJ2dvFdZEOJwIAdj-39" value="Утвердить проект" style="ellipse;whiteSpace=wrap;html=1;aspect=fixed;" vertex="1" parent="1">
          <mxGeometry x="570" y="750" width="80" height="80" as="geometry" />
        </mxCell>
        <mxCell id="TzFSNJ2dvFdZEOJwIAdj-41" value="Специалист по оценке проекта" style="rounded=0;whiteSpace=wrap;html=1;" vertex="1" parent="1">
          <mxGeometry x="380" y="770" width="100" height="50" as="geometry" />
        </mxCell>
        <mxCell id="TzFSNJ2dvFdZEOJwIAdj-42" value="" style="endArrow=classic;html=1;rounded=0;" edge="1" parent="1" target="TzFSNJ2dvFdZEOJwIAdj-41">
          <mxGeometry width="50" height="50" relative="1" as="geometry">
            <mxPoint x="430" y="710" as="sourcePoint" />
            <mxPoint x="480" y="660" as="targetPoint" />
          </mxGeometry>
        </mxCell>
        <mxCell id="TzFSNJ2dvFdZEOJwIAdj-43" value="" style="endArrow=classic;html=1;rounded=0;exitX=0.5;exitY=1;exitDx=0;exitDy=0;entryX=1;entryY=0.25;entryDx=0;entryDy=0;" edge="1" parent="1" source="TzFSNJ2dvFdZEOJwIAdj-38" target="TzFSNJ2dvFdZEOJwIAdj-41">
          <mxGeometry width="50" height="50" relative="1" as="geometry">
            <mxPoint x="530" y="710" as="sourcePoint" />
            <mxPoint x="470" y="780" as="targetPoint" />
            <Array as="points">
              <mxPoint x="510" y="783" />
            </Array>
          </mxGeometry>
        </mxCell>
        <mxCell id="TzFSNJ2dvFdZEOJwIAdj-45" style="edgeStyle=orthogonalEdgeStyle;rounded=0;orthogonalLoop=1;jettySize=auto;html=1;entryX=0;entryY=0.588;entryDx=0;entryDy=0;entryPerimeter=0;" edge="1" parent="1" source="TzFSNJ2dvFdZEOJwIAdj-41" target="TzFSNJ2dvFdZEOJwIAdj-39">
          <mxGeometry relative="1" as="geometry" />
        </mxCell>
        <mxCell id="TzFSNJ2dvFdZEOJwIAdj-46" value="" style="endArrow=classic;html=1;rounded=0;" edge="1" parent="1">
          <mxGeometry width="50" height="50" relative="1" as="geometry">
            <mxPoint x="379" y="570" as="sourcePoint" />
            <mxPoint x="379" y="610" as="targetPoint" />
          </mxGeometry>
        </mxCell>
        <mxCell id="TzFSNJ2dvFdZEOJwIAdj-47" value="Проект дома" style="text;html=1;strokeColor=none;fillColor=none;align=center;verticalAlign=middle;whiteSpace=wrap;rounded=0;" vertex="1" parent="1">
          <mxGeometry x="310" y="580" width="60" height="30" as="geometry" />
        </mxCell>
        <mxCell id="TzFSNJ2dvFdZEOJwIAdj-48" value="Проверенная схема" style="text;html=1;strokeColor=none;fillColor=none;align=center;verticalAlign=middle;whiteSpace=wrap;rounded=0;" vertex="1" parent="1">
          <mxGeometry x="430" y="635" width="60" height="30" as="geometry" />
        </mxCell>
        <mxCell id="TzFSNJ2dvFdZEOJwIAdj-49" value="Смета" style="text;html=1;strokeColor=none;fillColor=none;align=center;verticalAlign=middle;whiteSpace=wrap;rounded=0;" vertex="1" parent="1">
          <mxGeometry x="510" y="750" width="60" height="30" as="geometry" />
        </mxCell>
        <mxCell id="TzFSNJ2dvFdZEOJwIAdj-50" value="Оценка предстоящих работ" style="text;html=1;strokeColor=none;fillColor=none;align=center;verticalAlign=middle;whiteSpace=wrap;rounded=0;" vertex="1" parent="1">
          <mxGeometry x="500" y="810" width="60" height="30" as="geometry" />
        </mxCell>
        <mxCell id="TzFSNJ2dvFdZEOJwIAdj-51" value="" style="endArrow=classic;html=1;rounded=0;entryX=0.5;entryY=0;entryDx=0;entryDy=0;" edge="1" parent="1" target="TzFSNJ2dvFdZEOJwIAdj-39">
          <mxGeometry width="50" height="50" relative="1" as="geometry">
            <mxPoint x="380" y="590" as="sourcePoint" />
            <mxPoint x="690" y="560" as="targetPoint" />
            <Array as="points">
              <mxPoint x="610" y="590" />
            </Array>
          </mxGeometry>
        </mxCell>
        <mxCell id="TzFSNJ2dvFdZEOJwIAdj-52" value="" style="endArrow=classic;html=1;rounded=0;" edge="1" parent="1">
          <mxGeometry width="50" height="50" relative="1" as="geometry">
            <mxPoint x="650" y="790" as="sourcePoint" />
            <mxPoint x="720" y="790" as="targetPoint" />
          </mxGeometry>
        </mxCell>
        <mxCell id="TzFSNJ2dvFdZEOJwIAdj-53" value="Утвержденный проект" style="edgeLabel;html=1;align=center;verticalAlign=middle;resizable=0;points=[];" vertex="1" connectable="0" parent="TzFSNJ2dvFdZEOJwIAdj-52">
          <mxGeometry x="0.1429" relative="1" as="geometry">
            <mxPoint x="20" y="-10" as="offset" />
          </mxGeometry>
        </mxCell>
        <mxCell id="TzFSNJ2dvFdZEOJwIAdj-54" value="Акт приемки" style="text;html=1;strokeColor=none;fillColor=none;align=center;verticalAlign=middle;whiteSpace=wrap;rounded=0;" vertex="1" parent="1">
          <mxGeometry x="340" y="150" width="60" height="30" as="geometry" />
        </mxCell>
        <mxCell id="TzFSNJ2dvFdZEOJwIAdj-55" value="&lt;div&gt;Проект дома&lt;/div&gt;" style="text;html=1;strokeColor=none;fillColor=none;align=center;verticalAlign=middle;whiteSpace=wrap;rounded=0;" vertex="1" parent="1">
          <mxGeometry x="220" y="40" width="60" height="30" as="geometry" />
        </mxCell>
        <mxCell id="TzFSNJ2dvFdZEOJwIAdj-56" value="Прайс-лист на материалы" style="text;html=1;strokeColor=none;fillColor=none;align=center;verticalAlign=middle;whiteSpace=wrap;rounded=0;" vertex="1" parent="1">
          <mxGeometry x="140" y="160" width="100" height="30" as="geometry" />
        </mxCell>
      </root>
    </mxGraphModel>
  </diagram>
</mxfile>
